REM DIRINDEX 1\3,1\4,1\5,1\6,1\2\7,1\2\8,1\2\9,1\2\10,1\2\11
REM DIRNAME cjc021,folder01,folder02,folder03,folder04,folder05,folder06,folder07,folder08,folder09,folder10
TITLE ""
FILE "DISC5Track39.mp3" MP3
  TRACK 01 AUDIO
    TITLE "0:"
    INDEX 01 00:00:00
  TRACK 02 AUDIO
    TITLE "3:cjc021_5870"
    INDEX 01 00:00:23
  TRACK 03 AUDIO
    TITLE "0:"
    INDEX 01 00:01:28
  TRACK 04 AUDIO
    TITLE "4:cjc021_5871"
    INDEX 01 00:03:02
  TRACK 05 AUDIO
    TITLE "0:"
    INDEX 01 00:04:07
  TRACK 06 AUDIO
    TITLE "5:cjc021_5872"
    INDEX 01 00:04:42
  TRACK 07 AUDIO
    TITLE "0:"
    INDEX 01 00:06:55
  TRACK 08 AUDIO
    TITLE "3:cjc021_5873"
    INDEX 01 00:08:11
  TRACK 09 AUDIO
    TITLE "0:"
    INDEX 01 00:09:16
  TRACK 10 AUDIO
    TITLE "4:cjc021_5874"
    INDEX 01 00:10:66
  TRACK 11 AUDIO
    TITLE "0:"
    INDEX 01 00:11:70
  TRACK 12 AUDIO
    TITLE "5:cjc021_5875"
    INDEX 01 00:12:30
  TRACK 13 AUDIO
    TITLE "0:"
    INDEX 01 00:14:51
  TRACK 14 AUDIO
    TITLE "3:cjc021_5876"
    INDEX 01 00:16:12
  TRACK 15 AUDIO
    TITLE "0:"
    INDEX 01 00:17:31
  TRACK 16 AUDIO
    TITLE "4:cjc021_5877"
    INDEX 01 00:19:05
  TRACK 17 AUDIO
    TITLE "0:"
    INDEX 01 00:20:22
  TRACK 18 AUDIO
    TITLE "5:cjc021_5878"
    INDEX 01 00:20:55
  TRACK 19 AUDIO
    TITLE "0:"
    INDEX 01 00:23:30
  TRACK 20 AUDIO
    TITLE "3:cjc021_5879"
    INDEX 01 00:24:67
  TRACK 21 AUDIO
    TITLE "0:"
    INDEX 01 00:25:66
  TRACK 22 AUDIO
    TITLE "4:cjc021_5880"
    INDEX 01 00:27:43
  TRACK 23 AUDIO
    TITLE "0:"
    INDEX 01 00:28:43
  TRACK 24 AUDIO
    TITLE "5:cjc021_5881"
    INDEX 01 00:29:07
  TRACK 25 AUDIO
    TITLE "0:"
    INDEX 01 00:31:12
  TRACK 26 AUDIO
    TITLE "3:cjc021_5882"
    INDEX 01 00:32:48
  TRACK 27 AUDIO
    TITLE "0:"
    INDEX 01 00:33:60
  TRACK 28 AUDIO
    TITLE "4:cjc021_5883"
    INDEX 01 00:35:35
  TRACK 29 AUDIO
    TITLE "0:"
    INDEX 01 00:36:46
  TRACK 30 AUDIO
    TITLE "5:cjc021_5884"
    INDEX 01 00:37:07
  TRACK 31 AUDIO
    TITLE "0:"
    INDEX 01 00:39:43
  TRACK 32 AUDIO
    TITLE "3:cjc021_5885"
    INDEX 01 00:41:04
  TRACK 33 AUDIO
    TITLE "0:"
    INDEX 01 00:42:31
  TRACK 34 AUDIO
    TITLE "4:cjc021_5886"
    INDEX 01 00:44:07
  TRACK 35 AUDIO
    TITLE "0:"
    INDEX 01 00:45:33
  TRACK 36 AUDIO
    TITLE "5:cjc021_5887"
    INDEX 01 00:45:67
  TRACK 37 AUDIO
    TITLE "0:"
    INDEX 01 00:48:67
  TRACK 38 AUDIO
    TITLE "3:cjc021_5888"
    INDEX 01 00:50:31
  TRACK 39 AUDIO
    TITLE "0:"
    INDEX 01 00:51:42
  TRACK 40 AUDIO
    TITLE "4:cjc021_5889"
    INDEX 01 00:53:21
  TRACK 41 AUDIO
    TITLE "0:"
    INDEX 01 00:54:34
  TRACK 42 AUDIO
    TITLE "5:cjc021_5890"
    INDEX 01 00:54:72
  TRACK 43 AUDIO
    TITLE "0:"
    INDEX 01 00:58:13
  TRACK 44 AUDIO
    TITLE "3:cjc021_5891"
    INDEX 01 00:59:47
  TRACK 45 AUDIO
    TITLE "0:"
    INDEX 01 01:00:57
  TRACK 46 AUDIO
    TITLE "4:cjc021_5892"
    INDEX 01 01:02:32
  TRACK 47 AUDIO
    TITLE "0:"
    INDEX 01 01:03:43
  TRACK 48 AUDIO
    TITLE "5:cjc021_5893"
    INDEX 01 01:04:01
  TRACK 49 AUDIO
    TITLE "0:"
    INDEX 01 01:06:53
  TRACK 50 AUDIO
    TITLE "3:cjc021_5894"
    INDEX 01 01:08:11
  TRACK 51 AUDIO
    TITLE "0:"
    INDEX 01 01:09:14
  TRACK 52 AUDIO
    TITLE "4:cjc021_5895"
    INDEX 01 01:10:65
  TRACK 53 AUDIO
    TITLE "0:"
    INDEX 01 01:11:66
  TRACK 54 AUDIO
    TITLE "5:cjc021_5896"
    INDEX 01 01:12:28
  TRACK 55 AUDIO
    TITLE "0:"
    INDEX 01 01:14:57
  TRACK 56 AUDIO
    TITLE "3:cjc021_5897"
    INDEX 01 01:16:20
  TRACK 57 AUDIO
    TITLE "0:"
    INDEX 01 01:17:24
  TRACK 58 AUDIO
    TITLE "4:cjc021_5898"
    INDEX 01 01:18:74
  TRACK 59 AUDIO
    TITLE "0:"
    INDEX 01 01:20:06
  TRACK 60 AUDIO
    TITLE "5:cjc021_5899"
    INDEX 01 01:20:40
  TRACK 61 AUDIO
    TITLE "0:"
    INDEX 01 01:22:52
